/* XPM */
static const char * galaxql_16x16_xpm[] = {
"16 16 29 1",
" 	c None",
".	c #080808",
"+	c #040404",
"@	c #000000",
"#	c #CCCCCC",
"$	c #B2B2B2",
"%	c #292929",
"&	c #E3E3E3",
"*	c #1C1C1C",
"=	c #424242",
"-	c #EAEAEA",
";	c #DDDDDD",
">	c #111111",
",	c #F1F1F1",
"'	c #D7D7D7",
")	c #C0C0C0",
"!	c #161616",
"~	c #222222",
"{	c #4D4D4D",
"]	c #777777",
"^	c #333333",
"/	c #CBCBCB",
"(	c #5F5F5F",
"_	c #555555",
":	c #808080",
"<	c #A0A0A4",
"[	c #868686",
"}	c #666666",
"|	c #393939",
".++++++++++++++.",
"@@@@@@@@@@@@@@@@",
"+@@@@@@@@@@@@@@+",
"+@@@@@@@@@@@@@@+",
"+@@@@@@@@@@@@@@+",
"@+#$@@@%+@+%@@@+",
"+&*%@@=-;>+,@@@+",
".$$$%@,@+'+)@@@+",
"@@!~){]+.#+)@@@+",
"@%#@)^/(,{@/_:<@",
"@+<'=@{[$+@::}|@",
"+@@+@@@@{'@@@@@+",
"+@@@@@@@@}@@@@@+",
"+@@@@@@@@@@@@@@+",
"@@@@@@@@@@@@@@@@",
".++++++++++++++."};
