/* XPM */
static const char * galaxql_32x32_xpm[] = {
"32 32 26 1",
" 	c None",
".	c #0C0C0C",
"+	c #040404",
"@	c #777777",
"#	c #4D4D4D",
"$	c #EAEAEA",
"%	c #CCCCCC",
"&	c #868686",
"*	c #5F5F5F",
"=	c #1C1C1C",
"-	c #333333",
";	c #424242",
">	c #E3E3E3",
",	c #F1F1F1",
"'	c #292929",
")	c #161616",
"!	c #393939",
"~	c #DDDDDD",
"{	c #C0C0C0",
"]	c #D7D7D7",
"^	c #A0A0A4",
"/	c #666666",
"(	c #B2B2B2",
"_	c #969696",
":	c #555555",
"<	c #222222",
".++++++++++++++++++++++++++++++.",
"++++++++++++++++++++++++++++++++",
"++++++++++++++++++++++++++++++++",
"++++++++++++++++++++++++++++++++",
"++++++++++++++++++++++++++++++++",
"++++++++++++++++++++++++++++++++",
"++++++++++++++++++++++++++++++++",
"++++++++++++++++++++++++++++++++",
"++++++++++++++++++++++++++++++++",
"++++++++++++++++++++++++++++++++",
"++++.@@+++++++++++++++++++++++++",
"+++#$%$&++++++.*=+++++*-++++++++",
"++*$;+@&+++++.>,>&+++',&++++++++",
"+)$!+++++++++~{)*$&++.{@++++++++",
"+;]{%^*)++++@$.++/>#++{&++++++++",
"++-/&(~$^.++$/++++(^++(_++++++++",
"++++++):%(+;$'++++&{++^^++++++++",
"++++!;++:%.:])+^&+{^++_(++++++++",
"+++.$&++!>.:]!+&^/$'++&(++++)=++",
"+++;>.++{(+'%{-#{]*+++@(/&^{$%++",
"+++)%_!{~.++;(~](&++++&](^_&*<++",
"++++-(]&.+++++<.-]<+++<!++++++++",
"+++++++++++++++++((+++++++++++++",
"+++++++++++++++++!$@++++++++++++",
"++++++++++++++++++&^++++++++++++",
"++++++++++++++++++++++++++++++++",
"++++++++++++++++++++++++++++++++",
"++++++++++++++++++++++++++++++++",
"++++++++++++++++++++++++++++++++",
"++++++++++++++++++++++++++++++++",
"++++++++++++++++++++++++++++++++",
".++++++++++++++++++++++++++++++."};
