/* XPM */
static const char * galaxql_64x64_xpm[] = {
"64 64 29 1",
" 	c None",
".	c #161616",
"+	c #080808",
"@	c #0C0C0C",
"#	c #000000",
"$	c #1C1C1C",
"%	c #393939",
"&	c #969696",
"*	c #C0C0C0",
"=	c #DDDDDD",
"-	c #CCCCCC",
";	c #B2B2B2",
">	c #A0A0A4",
",	c #292929",
"'	c #040404",
")	c #424242",
"!	c #CBCBCB",
"~	c #D7D7D7",
"{	c #808080",
"]	c #999999",
"^	c #4D4D4D",
"/	c #868686",
"(	c #666666",
"_	c #777777",
":	c #222222",
"<	c #111111",
"[	c #555555",
"}	c #333333",
"|	c #5F5F5F",
".+@@@@@@@@@@@@@@@@@@@@@@@@@@@@@@@@@@@@@@@@@@@@@@@@@@@@@@@@@@@@+.",
"+##############################################################+",
"@##############################################################@",
"@##############################################################@",
"@##############################################################@",
"@##############################################################@",
"@##############################################################@",
"@##############################################################@",
"@##############################################################@",
"@##############################################################@",
"@##############################################################@",
"@##############################################################@",
"@##############################################################@",
"@##############################################################@",
"@##############################################################@",
"@##############################################################@",
"@##############################################################@",
"@##############################################################@",
"@##############################################################@",
"@##############################################################@",
"@##########.$+#################################################@",
"@########%&**&%################################################@",
"@######.&=-;>;>,#############################'#################@",
"@#####)!~>{{&]>^#############)//($#########'_>/$###############@",
"@####^=!/^:<[>>)############^~-**;(<#######[=*;^###############@",
"@###%~*{}<'#,_(,###########|=;>>>>;&:######[;]])###############@",
"@##@**{,+###'<$@##########)=;&(|_]>;],#####}>>>^###############@",
"@##[->_:'################:-*&^.+.[]>>/.####:>>>^###############@",
"@##_*]>;;/()$+##########']-][<###@|]>>('###<>>>[###############@",
"@##[;>>>;;***](}########%->{:'####$_>>&}###'&>>['##############@",
"@##<[_/&]>>>>;**&)######]*]^+######%&>>('###/>>['##############@",
"@###'.:})|_/]>>>;;_+###,*>/,#######@_]>{.###_;>(+##############@",
"@#######'+<$%[_]>>;('##|!>_.########|>>/$###(;>(+##############@",
"@###########'+.)/>>&:##/;>|+########^;>/$###|;>(@##############@",
"@###############%&>]%#+];>['##<&&:##|*>_.###[;>{<##############@",
"@#######,]&}####./>>)#<>>>['##^=;)##>;]^+###^;>_<##############@",
"@######+;~;^####@/>>)#.>>>('##[;](#[~>{:####);>_<##############@",
"@######)!>{:####@];]%#@&>>&}##}>>&{!;&)@####%;>{<#######@}).###@",
"@######|*>(<####,*;{$#'_>]>/,#+/>>;;][<#####};>/,<:,}^(/*~-/+##@",
"@######|;>[#####&!]^@##)]>]>>()];]]]|$'#####};>]&;!!---!;>>|@##@",
"@######[;>/}##$/=>|$###+[&>>>*!*>]>|.'######};>>;;;>>]&&//(,'##@",
"@######:&>>>//!=>|$'####@%_&]]>]]>>('#######};>]{(|[^)%},:.+###@",
"@#######)/>;*!;_%.'#######.,)^)%}_>]%#######$(()$<@+''#########@",
"@#######',|__|)$@###########''''#^]>{<#######'@@###############@",
"@#########+..@+##################,/>>[#########################@",
"@#################################|]>&,########################@",
"@#################################,/>>_<#######################@",
"@#################################'|]>>^#######################@",
"@##################################$_>;_+######################@",
"@###################################,({^@######################@",
"@####################################<$<'######################@",
"@##############################################################@",
"@##############################################################@",
"@##############################################################@",
"@##############################################################@",
"@##############################################################@",
"@##############################################################@",
"@##############################################################@",
"@##############################################################@",
"@##############################################################@",
"@##############################################################@",
"@##############################################################@",
"+##############################################################+",
".+@@@@@@@@@@@@@@@@@@@@@@@@@@@@@@@@@@@@@@@@@@@@@@@@@@@@@@@@@@@@+."};
